<?xml version="1.0" standalone="no"?>
<!DOCTYPE svg PUBLIC "-//W3C//DTD SVG 20010904//EN"
 "http://www.w3.org/TR/2001/REC-SVG-20010904/DTD/svg10.dtd">
<svg version="1.0" xmlns="http://www.w3.org/2000/svg"
 width="500.000000pt" height="500.000000pt" viewBox="0 0 500.000000 500.000000"
 preserveAspectRatio="xMidYMid meet">

<g transform="translate(0.000000,500.000000) scale(0.100000,-0.100000)"
fill="#000000" stroke="none">
<path d="M1648 3722 l-848 -497 -2 -520 -3 -520 -248 -3 -247 -2 56 -83 c32
-45 77 -109 100 -143 l43 -60 -99 -142 -99 -142 407 0 408 0 684 -401 c377
-221 690 -403 696 -405 5 -3 322 178 703 401 l692 405 428 2 429 3 -94 134
c-52 74 -94 139 -94 145 0 6 43 72 95 146 l95 135 -270 3 -270 2 0 523 0 522
-38 21 c-20 11 -129 75 -242 141 -1109 650 -1424 833 -1429 832 -3 0 -387
-224 -853 -497z m1584 -1 c393 -230 752 -440 797 -466 45 -26 79 -51 74 -55
-11 -10 -680 -400 -686 -400 -5 0 -417 240 -942 549 -165 98 -380 224 -478
280 -98 57 -176 108 -175 113 5 13 660 397 679 397 9 1 338 -187 731 -418z
m-1014 -478 c345 -201 705 -412 799 -467 95 -56 173 -104 173 -108 0 -4 -13
-14 -29 -22 -15 -8 -167 -97 -337 -197 -170 -100 -313 -182 -319 -182 -5 0
-129 70 -275 155 -146 85 -425 249 -620 363 -195 115 -433 254 -527 309 -95
56 -173 105 -174 110 -1 8 656 403 674 405 4 1 290 -164 635 -366z m-536 -575
c439 -256 788 -467 788 -474 0 -12 -129 -14 -805 -14 l-805 0 0 481 c0 447 1
481 17 475 9 -4 371 -214 805 -468z m2468 -8 l0 -480 -806 0 c-737 0 -805 1
-802 16 2 9 150 102 343 215 l340 199 5 -200 5 -199 107 62 107 62 3 205 3
204 335 197 c184 109 341 198 348 198 9 1 12 -101 12 -479z m-3104 -607 c-4
-43 -10 -89 -13 -103 l-6 -25 27 26 c60 59 120 58 152 -2 33 -65 -6 -200 -70
-243 -28 -18 -88 -21 -116 -6 -13 7 -21 7 -25 0 -9 -15 -45 -12 -45 4 0 21 39
355 46 394 5 26 11 32 31 32 l26 0 -7 -77z m1277 36 c-5 -58 -34 -306 -38
-326 -5 -22 -3 -23 73 -23 43 0 81 -3 84 -6 3 -3 4 -14 1 -25 -5 -17 -15 -19
-114 -19 -97 0 -109 2 -109 18 0 23 39 351 45 379 9 38 61 40 58 2z m265 0 c4
-34 -20 -54 -47 -39 -20 10 -29 49 -14 64 4 4 19 6 33 4 19 -2 26 -10 28 -29z
m225 25 c11 -11 -5 -34 -23 -34 -27 0 -58 -31 -65 -67 -6 -32 -6 -33 29 -33
29 0 36 -4 36 -20 0 -16 -7 -20 -34 -20 -40 0 -37 9 -61 -175 -17 -125 -25
-145 -57 -145 -16 0 -19 5 -14 28 5 23 36 271 36 285 0 3 -9 7 -20 10 -29 8
-26 37 5 37 21 0 25 5 25 28 0 35 34 90 63 102 26 10 71 13 80 4z m635 -14
c28 -17 31 -23 22 -40 -13 -24 -33 -26 -50 -5 -18 22 -76 19 -100 -5 -43 -43
-19 -98 53 -115 44 -11 87 -58 87 -94 0 -46 -23 -93 -59 -124 -27 -22 -42 -27
-88 -27 -85 0 -141 44 -99 79 10 8 20 6 41 -11 41 -32 91 -29 121 6 24 27 30
61 16 83 -4 7 -33 23 -64 37 -65 29 -88 56 -88 106 0 101 119 164 208 110z
m-2629 -27 c26 -98 91 -366 91 -374 0 -5 -13 -9 -29 -9 -27 0 -30 4 -43 58
l-14 57 -80 2 -80 2 -29 -57 c-24 -46 -35 -58 -57 -60 -16 -2 -28 1 -28 7 0 5
43 96 95 200 52 105 95 196 95 201 0 6 16 10 35 10 31 0 35 -3 44 -37z m1158
-38 l-6 -55 40 0 c33 0 40 -3 37 -17 -2 -13 -15 -19 -44 -21 l-41 -3 -10 -92
c-11 -103 -3 -128 35 -108 16 8 21 7 26 -5 10 -27 -13 -44 -59 -44 -61 0 -69
14 -62 108 4 42 9 92 13 110 6 28 4 32 -15 32 -14 0 -21 6 -21 20 0 14 7 20
24 20 20 0 25 7 31 37 9 50 22 73 42 73 13 0 15 -9 10 -55z m1625 -3 l-4 -52
36 0 c29 0 36 -4 36 -20 0 -17 -7 -20 -39 -20 -40 0 -40 0 -47 -47 -4 -27 -7
-73 -8 -103 -1 -56 2 -59 43 -49 19 5 27 -31 9 -42 -23 -15 -86 -10 -103 8
-18 17 -17 32 1 184 6 42 4 47 -16 52 -27 7 -22 31 8 35 20 3 42 50 42 89 0
12 19 23 35 19 6 -2 9 -25 7 -54z m-2145 -49 c87 -41 82 -197 -9 -267 -50 -37
-119 -37 -157 2 -70 69 -35 219 62 262 52 24 60 24 104 3z m1540 -2 c37 -23
47 -49 34 -84 -14 -36 -49 -57 -120 -70 -55 -10 -61 -14 -61 -36 0 -58 72 -81
124 -40 22 17 29 19 41 9 32 -27 -38 -70 -113 -70 -177 0 -131 297 48 309 8 0
29 -8 47 -18z m887 5 c50 -21 66 -51 66 -121 0 -104 -61 -175 -150 -175 -72 1
-110 43 -110 124 0 78 39 143 105 172 38 17 48 17 89 0z m496 -1 c32 -17 46
-51 36 -90 -8 -31 -70 -64 -137 -72 -52 -6 -59 -16 -38 -56 23 -43 64 -49 117
-17 18 11 37 18 43 15 37 -23 -35 -75 -105 -75 -58 0 -81 12 -101 50 -41 80 5
208 90 246 39 17 60 17 95 -1z m-2743 -70 c-4 -41 -9 -92 -13 -113 -4 -29 -2
-43 11 -55 22 -23 29 -22 68 13 37 32 50 69 62 173 7 55 8 57 37 57 27 0 29
-2 24 -32 -3 -18 -10 -76 -16 -128 -15 -137 -17 -142 -43 -138 -14 2 -23 11
-25 26 l-3 23 -30 -26 c-38 -32 -98 -34 -124 -5 -16 18 -17 32 -12 127 9 139
13 153 45 153 l25 0 -6 -75z m933 53 c0 -13 -7 -79 -15 -148 -8 -69 -15 -126
-15 -127 0 -2 -14 -3 -30 -3 -26 0 -30 3 -26 23 3 12 10 65 16 117 18 160 18
160 45 160 19 0 25 -5 25 -22z m1501 10 c1 -7 0 -23 -1 -35 -1 -20 2 -19 33
12 48 48 89 48 79 0 -3 -20 -10 -25 -32 -25 -53 0 -83 -54 -95 -168 -7 -72 -7
-72 -37 -72 -29 0 -30 2 -25 33 4 17 11 79 17 137 14 128 14 130 40 130 11 0
20 -6 21 -12z m-1601 -727 l0 -360 -457 268 c-252 147 -519 303 -593 346 -74
43 -142 84 -150 92 -12 11 85 13 593 13 l607 0 0 -359z m1270 352 c0 -10
-1189 -707 -1195 -701 -3 3 -8 656 -5 701 0 4 270 7 600 7 330 0 600 -3 600
-7z"/>
<path d="M1073 1928 c-45 -50 -75 -156 -52 -184 14 -17 53 -18 81 -3 43 23 73
142 48 190 -14 26 -52 24 -77 -3z"/>
<path d="M723 1940 l-41 -90 69 0 c67 0 68 1 60 23 -4 12 -14 52 -21 90 -7 37
-15 67 -19 67 -3 0 -25 -40 -48 -90z"/>
<path d="M1353 1928 c-42 -47 -54 -145 -22 -184 28 -34 86 -8 118 53 18 36 14
117 -7 136 -26 24 -65 21 -89 -5z"/>
<path d="M2886 1920 c-39 -46 -35 -64 12 -55 53 9 84 32 80 58 -2 16 -11 23
-34 25 -25 2 -37 -3 -58 -28z"/>
<path d="M3797 1939 c-45 -26 -65 -160 -29 -192 26 -24 59 -21 87 7 43 43 56
144 24 183 -14 16 -57 17 -82 2z"/>
<path d="M4289 1938 c-19 -16 -49 -59 -49 -72 0 -12 81 2 108 20 34 22 26 58
-13 62 -16 2 -37 -3 -46 -10z"/>
</g>
</svg>
